<svg xmlns="http://www.w3.org/2000/svg" viewBox="0 0 1600 900" preserveAspectRatio="xMidYMid slice" role="img" aria-label="Abstract therapeutic motion">
  <defs>
    <linearGradient id="g2" x1="0" y1="0" x2="1" y2="1">
      <stop offset="0%" stop-color="#0B2545"/>
      <stop offset="50%" stop-color="#134E4A"/>
      <stop offset="100%" stop-color="#0F766E"/>
    </linearGradient>
    <radialGradient id="spot2a" cx="20%" cy="30%" r="60%">
      <stop offset="0%" stop-color="#99F6E4" stop-opacity="0.45"/>
      <stop offset="100%" stop-color="#99F6E4" stop-opacity="0"/>
    </radialGradient>
    <radialGradient id="spot2b" cx="85%" cy="80%" r="50%">
      <stop offset="0%" stop-color="#FBBF24" stop-opacity="0.18"/>
      <stop offset="100%" stop-color="#FBBF24" stop-opacity="0"/>
    </radialGradient>
    <pattern id="grid2" width="60" height="60" patternUnits="userSpaceOnUse">
      <path d="M 60 0 L 0 0 0 60" fill="none" stroke="#ffffff" stroke-opacity="0.05" stroke-width="1"/>
    </pattern>
  </defs>
  <rect width="1600" height="900" fill="url(#g2)"/>
  <rect width="1600" height="900" fill="url(#grid2)"/>
  <rect width="1600" height="900" fill="url(#spot2a)"/>
  <rect width="1600" height="900" fill="url(#spot2b)"/>
  <g fill="none" stroke="#ffffff" stroke-opacity="0.18" stroke-width="2" stroke-linecap="round">
    <path d="M -40 700 C 200 600 380 760 600 640 S 980 480 1180 600 S 1500 720 1700 600"/>
    <path d="M -40 760 C 200 660 380 820 600 700 S 980 540 1180 660 S 1500 780 1700 660" stroke-opacity="0.10"/>
  </g>
  <g fill="#ffffff" fill-opacity="0.12">
    <circle cx="220" cy="180" r="3"/>
    <circle cx="380" cy="120" r="2"/>
    <circle cx="560" cy="200" r="2.5"/>
    <circle cx="1180" cy="160" r="3"/>
    <circle cx="1340" cy="240" r="2"/>
    <circle cx="1480" cy="120" r="2.5"/>
  </g>
</svg>
