<svg xmlns="http://www.w3.org/2000/svg" viewBox="0 0 1600 900" preserveAspectRatio="xMidYMid slice" role="img" aria-label="Abstract calm horizon">
  <defs>
    <linearGradient id="g3" x1="0" y1="0" x2="0" y2="1">
      <stop offset="0%" stop-color="#020617"/>
      <stop offset="45%" stop-color="#0F172A"/>
      <stop offset="100%" stop-color="#1E3A8A"/>
    </linearGradient>
    <radialGradient id="spot3" cx="60%" cy="0%" r="70%">
      <stop offset="0%" stop-color="#5EEAD4" stop-opacity="0.30"/>
      <stop offset="100%" stop-color="#5EEAD4" stop-opacity="0"/>
    </radialGradient>
    <pattern id="diag" width="24" height="24" patternUnits="userSpaceOnUse" patternTransform="rotate(45)">
      <line x1="0" y1="0" x2="0" y2="24" stroke="#ffffff" stroke-opacity="0.05" stroke-width="1"/>
    </pattern>
  </defs>
  <rect width="1600" height="900" fill="url(#g3)"/>
  <rect width="1600" height="900" fill="url(#diag)"/>
  <rect width="1600" height="900" fill="url(#spot3)"/>
  <g opacity="0.55">
    <path d="M0 540 Q400 480 800 540 T1600 500 L1600 900 L0 900 Z" fill="#0F172A"/>
    <path d="M0 620 Q400 580 800 620 T1600 600 L1600 900 L0 900 Z" fill="#1E293B" opacity="0.85"/>
    <path d="M0 720 Q400 700 800 720 T1600 710 L1600 900 L0 900 Z" fill="#0F172A" opacity="0.95"/>
  </g>
  <g fill="none" stroke="#5EEAD4" stroke-opacity="0.35" stroke-width="1.5">
    <path d="M 200 220 C 360 160 520 280 680 220 S 1000 140 1160 220 S 1480 320 1600 240"/>
  </g>
  <g fill="#ffffff" fill-opacity="0.5">
    <circle cx="1300" cy="200" r="2"/>
    <circle cx="1380" cy="160" r="1.5"/>
    <circle cx="1240" cy="240" r="1.5"/>
  </g>
</svg>
