<svg xmlns="http://www.w3.org/2000/svg" viewBox="0 0 1600 900" preserveAspectRatio="xMidYMid slice" role="img" aria-label="Abstract strength and recovery">
  <defs>
    <linearGradient id="g5" x1="0" y1="0" x2="1" y2="1">
      <stop offset="0%" stop-color="#020617"/>
      <stop offset="50%" stop-color="#0F172A"/>
      <stop offset="100%" stop-color="#134E4A"/>
    </linearGradient>
    <radialGradient id="spot5a" cx="50%" cy="50%" r="65%">
      <stop offset="0%" stop-color="#14B8A6" stop-opacity="0.30"/>
      <stop offset="100%" stop-color="#14B8A6" stop-opacity="0"/>
    </radialGradient>
    <pattern id="micro" width="14" height="14" patternUnits="userSpaceOnUse">
      <rect width="14" height="14" fill="none"/>
      <circle cx="1" cy="1" r="0.8" fill="#ffffff" fill-opacity="0.06"/>
    </pattern>
  </defs>
  <rect width="1600" height="900" fill="url(#g5)"/>
  <rect width="1600" height="900" fill="url(#micro)"/>
  <rect width="1600" height="900" fill="url(#spot5a)"/>
  <g fill="none" stroke="#5EEAD4" stroke-opacity="0.22" stroke-width="1.6" stroke-linecap="round">
    <path d="M 0 460 C 200 380 360 540 560 460 S 920 320 1120 440 S 1480 580 1700 460"/>
  </g>
  <g fill="none" stroke="#ffffff" stroke-opacity="0.10" stroke-width="1.2" stroke-linecap="round">
    <path d="M 0 520 C 200 440 360 600 560 520 S 920 380 1120 500 S 1480 640 1700 520"/>
  </g>
  <g fill="#5EEAD4" fill-opacity="0.45">
    <circle cx="160" cy="200" r="2.5"/>
    <circle cx="280" cy="160" r="1.5"/>
    <circle cx="420" cy="220" r="2"/>
    <circle cx="1180" cy="180" r="2.5"/>
    <circle cx="1320" cy="240" r="1.5"/>
    <circle cx="1440" cy="160" r="2"/>
  </g>
</svg>
